<svg xmlns="http://www.w3.org/2000/svg" fill="none" viewBox="0 0 144 48" height="48" width="144">
<path stroke="white" d="M4.15234 0.5H139.853C140.32 0.500044 140.785 0.606996 141.223 0.817383C141.66 1.02797 142.064 1.33909 142.406 1.7373C142.749 2.13555 143.024 2.61227 143.213 3.1416C143.402 3.67104 143.499 4.24098 143.499 4.81738L143.5 43.1885C143.5 43.7646 143.402 44.3342 143.213 44.8633C143.024 45.3921 142.749 45.8679 142.406 46.2656C142.064 46.6633 141.661 46.9746 141.224 47.1846C140.787 47.3944 140.321 47.5006 139.854 47.5H4.15137C3.21041 47.5011 2.28915 47.069 1.59668 46.2666C0.945621 45.5121 0.552619 44.4923 0.504883 43.4062L0.5 43.1875V4.81836C0.501318 3.65057 0.902167 2.54318 1.59668 1.7373C2.24581 0.98416 3.09608 0.555802 3.97559 0.504883L4.15234 0.5Z"></path>
<path fill="white" d="M31.6244 22.5632C31.593 18.9191 34.4786 17.1462 34.6106 17.0637C32.9763 14.5729 30.4433 14.2326 29.5532 14.2054C27.4258 13.9714 25.3622 15.5362 24.2785 15.5362C23.1731 15.5362 21.5043 14.228 19.7057 14.2665C17.3912 14.3038 15.2259 15.7047 14.0383 17.88C11.5876 22.3156 13.4154 28.8338 15.7634 32.4191C16.938 34.1762 18.3105 36.1356 20.1069 36.0666C21.8645 35.992 22.521 34.8964 24.6419 34.8964C26.7433 34.8964 27.3598 36.0666 29.192 36.0225C31.0782 35.992 32.2657 34.2587 33.3992 32.487C34.7566 30.4755 35.3017 28.4924 35.3233 28.3906C35.28 28.3748 31.6612 26.9298 31.6244 22.5632ZM28.1634 11.8469C29.1087 10.6111 29.7555 8.92979 29.5759 7.22363C28.2078 7.28695 26.4967 8.21295 25.5115 9.42162C24.6397 10.4867 23.861 12.2324 24.0622 13.8741C25.5991 13.994 27.177 13.0635 28.1634 11.8469Z"></path>
<path fill="white" d="M57.0902 35.8124H54.634L53.2885 31.3927H48.6119L47.3303 35.8124H44.9389L49.5734 20.7657H52.4352L57.0902 35.8124ZM52.8829 29.5384L51.6662 25.6094C51.5375 25.208 51.2952 24.2628 50.9405 22.7749H50.8972C50.7545 23.4148 50.5262 24.3601 50.2137 25.6094L49.0175 29.5384H52.8829ZM68.9851 30.2542C68.9851 32.0994 68.506 33.5579 67.5466 34.6287C66.6879 35.5818 65.6204 36.0578 64.3474 36.0578C62.9727 36.0578 61.9842 35.5456 61.3839 34.519V40.2118H59.0781V28.5288C59.0781 27.3699 59.0489 26.1815 58.9926 24.9627H61.0205L61.1492 26.6824H61.1925C61.9615 25.3867 63.1285 24.7388 64.6946 24.7388C65.9189 24.7388 66.941 25.2442 67.7586 26.2562C68.5752 27.2704 68.9851 28.6023 68.9851 30.2542ZM66.636 30.3423C66.636 29.2863 66.4088 28.4157 65.9524 27.7294C65.4538 27.016 64.7843 26.6587 63.9451 26.6587C63.3762 26.6587 62.8592 26.8577 62.3974 27.25C61.9345 27.6457 61.6316 28.1624 61.4899 28.8024C61.4267 29.0417 61.3907 29.288 61.3829 29.5362V31.3464C61.3829 32.1344 61.6143 32.8004 62.0772 33.3454C62.5401 33.8881 63.1415 34.1606 63.8813 34.1606C64.7497 34.1606 65.4257 33.8089 65.9092 33.1113C66.3937 32.4114 66.636 31.4888 66.636 30.3423ZM80.9222 30.2542C80.9222 32.0994 80.4431 33.5579 79.4837 34.6287C78.6239 35.5818 77.5575 36.0578 76.2834 36.0578C74.9088 36.0578 73.9202 35.5456 73.32 34.519V40.2118H71.0141V28.5288C71.0141 27.3699 70.9849 26.1815 70.9286 24.9627H72.9566L73.0853 26.6824H73.1285C73.8964 25.3867 75.0634 24.7388 76.6306 24.7388C77.8538 24.7388 78.8759 25.2442 79.6957 26.2562C80.5112 27.2704 80.9222 28.6023 80.9222 30.2542ZM78.572 30.3423C78.572 29.2863 78.3438 28.4157 77.8873 27.7294C77.3887 27.016 76.7214 26.6587 75.8822 26.6587C75.3133 26.6587 74.7963 26.8577 74.3323 27.25C73.8694 27.6457 73.5676 28.1624 73.4259 28.8024C73.3556 29.1009 73.3178 29.344 73.3178 29.5362V31.3464C73.3178 32.1344 73.5503 32.8004 74.0111 33.3454C74.474 33.8869 75.0753 34.1606 75.8173 34.1606C76.6868 34.1606 77.3628 33.8089 77.8452 33.1113C78.3297 32.4114 78.572 31.4888 78.572 30.3423ZM94.2685 31.5917C94.2685 32.8727 93.8402 33.9141 92.9891 34.718C92.0524 35.5954 90.7448 36.0352 89.0684 36.0352C87.5196 36.0352 86.278 35.7231 85.3414 35.0979L85.8746 33.0887C86.8859 33.7151 87.9966 34.0271 89.2058 34.0271C90.0754 34.0271 90.7513 33.8214 91.2337 33.4132C91.7172 33.0039 91.9616 32.4567 91.9616 31.7737C91.9616 31.1621 91.7593 30.6499 91.3624 30.2327C90.9633 29.8166 90.3036 29.4288 89.3767 29.0726C86.8567 28.0901 85.5956 26.653 85.5956 24.7626C85.5956 23.5279 86.0412 22.5171 86.9302 21.7268C87.8192 20.9376 88.9981 20.543 90.4647 20.543C91.7745 20.543 92.8658 20.7815 93.7321 21.2575L93.1535 23.2226C92.338 22.7613 91.4176 22.5307 90.3879 22.5307C89.5746 22.5307 88.9365 22.7398 88.4801 23.1559C88.0961 23.5279 87.9014 23.9813 87.9014 24.5195C87.9014 25.1131 88.1232 25.606 88.5644 25.9927C88.9473 26.3489 89.646 26.7367 90.6561 27.1528C91.8956 27.6751 92.8063 28.2834 93.3892 28.9822C93.9765 29.6809 94.2685 30.5526 94.2685 31.5917ZM101.912 26.7717H99.3702V32.0395C99.3702 33.3793 99.818 34.0475 100.716 34.0475C101.128 34.0475 101.47 34.0113 101.74 33.9356L101.804 35.7661C101.349 35.9436 100.751 36.0329 100.01 36.0329C99.0998 36.0329 98.3882 35.7423 97.8744 35.1612C97.3629 34.58 97.1054 33.6065 97.1054 32.2362V26.7672H95.5913V24.9582H97.1054V22.9716L99.3702 22.257V24.9582H101.912V26.7717ZM113.357 30.2982C113.357 31.966 112.9 33.3352 111.99 34.4059C111.037 35.5083 109.769 36.0578 108.189 36.0578C106.664 36.0578 105.452 35.5298 104.548 34.4749C103.643 33.4177 103.191 32.0858 103.191 30.4792C103.191 28.7979 103.659 27.4207 104.59 26.35C105.523 25.2781 106.78 24.7422 108.36 24.7422C109.883 24.7422 111.106 25.2714 112.032 26.3274C112.917 27.3518 113.357 28.6746 113.357 30.2982ZM110.967 30.3536C110.967 29.3598 110.761 28.5073 110.349 27.7938C109.866 26.9323 109.173 26.5015 108.277 26.5015C107.353 26.5015 106.645 26.9323 106.162 27.7938C105.749 28.5073 105.544 29.3745 105.544 30.3989C105.544 31.3938 105.749 32.2486 106.162 32.9598C106.661 33.8214 107.356 34.2521 108.257 34.2521C109.139 34.2521 109.83 33.8123 110.33 32.9383C110.754 32.2079 110.967 31.3498 110.967 30.3536ZM120.855 27.0827C120.615 27.0374 120.372 27.0151 120.128 27.016C119.317 27.016 118.69 27.3348 118.249 27.977C117.866 28.5423 117.673 29.2569 117.673 30.1196V35.8124H115.367V28.3795C115.369 27.2406 115.347 26.1017 115.3 24.9638H117.309L117.393 27.0397H117.457C117.701 26.3263 118.084 25.7508 118.61 25.32C119.091 24.9436 119.676 24.7397 120.277 24.7388C120.49 24.7388 120.682 24.7547 120.853 24.7829L120.855 27.0827ZM131.168 29.8743C131.174 30.2407 131.145 30.6069 131.083 30.9676H124.166C124.192 32.0395 124.527 32.8603 125.17 33.4256C125.753 33.9299 126.506 34.1832 127.432 34.1832C128.456 34.1832 129.391 34.0136 130.231 33.671L130.592 35.3432C129.61 35.791 128.451 36.0137 127.113 36.0137C125.504 36.0137 124.241 35.5185 123.321 34.5303C122.404 33.541 121.944 32.2113 121.944 30.5459C121.944 28.9109 122.372 27.5485 123.227 26.4619C124.123 25.3019 125.333 24.7219 126.856 24.7219C128.351 24.7219 129.484 25.3019 130.253 26.4619C130.862 27.3812 131.168 28.5209 131.168 29.8743ZM128.969 29.249C128.985 28.5333 128.834 27.9171 128.521 27.3959C128.122 26.7243 127.508 26.3896 126.685 26.3896C125.931 26.3896 125.317 26.7163 124.849 27.3721C124.465 27.8933 124.237 28.5197 124.167 29.2467L128.969 29.249Z"></path>
<path fill="white" d="M47.9366 15.448C47.2952 15.448 46.7404 15.4152 46.2785 15.3598V8.08517C46.9245 7.98087 47.5772 7.92945 48.2307 7.93141C50.8751 7.93141 52.093 9.29158 52.093 11.5088C52.093 14.0663 50.6545 15.448 47.9366 15.448ZM48.3238 8.86419C47.9668 8.86419 47.6629 8.88681 47.4109 8.94108V14.4711C47.5472 14.4937 47.8089 14.5039 48.1767 14.5039C49.9093 14.5039 50.8957 13.4727 50.8957 11.5416C50.8957 9.8196 50.0034 8.86419 48.3238 8.86419ZM55.8881 15.5034C54.3977 15.5034 53.4319 14.3399 53.4319 12.7604C53.4319 11.1142 54.4183 9.94058 55.9725 9.94058C57.4412 9.94058 58.4287 11.0486 58.4287 12.6734C58.4287 14.3399 57.411 15.5034 55.8881 15.5034ZM55.9314 10.8067C55.1127 10.8067 54.5881 11.6072 54.5881 12.7265C54.5881 13.8244 55.1235 14.6249 55.9206 14.6249C56.7177 14.6249 57.253 13.769 57.253 12.7039C57.253 11.6185 56.7285 10.8067 55.9314 10.8067ZM66.9275 10.0502L65.3322 15.3824H64.2929L63.632 13.0668C63.4677 12.5004 63.3309 11.9257 63.2221 11.3448H63.2005C63.1172 11.926 62.9593 12.5083 62.7917 13.0668L62.0887 15.3824H61.0385L59.5373 10.0502H60.7021L61.2797 12.5852C61.4159 13.1889 61.5306 13.7588 61.6258 14.297H61.6474C61.7307 13.8481 61.8669 13.2873 62.067 12.5965L62.7917 10.0514H63.7153L64.4086 12.5422C64.5762 13.146 64.7125 13.7384 64.8185 14.2981H64.8488C64.9223 13.7497 65.0381 13.1675 65.1949 12.5422L65.8146 10.0514L66.9275 10.0502ZM72.8004 15.3824H71.6669V12.3206C71.6669 11.3776 71.3208 10.905 70.6383 10.905C69.9667 10.905 69.5049 11.5088 69.5049 12.2109V15.3824H68.3714V11.5744C68.3714 11.1029 68.3606 10.5975 68.3292 10.0491H69.3264L69.3794 10.8722H69.4108C69.7158 10.3024 70.3344 9.94058 71.0277 9.94058C72.0984 9.94058 72.8014 10.7965 72.8014 12.1894L72.8004 15.3824ZM75.926 15.3824H74.7915V7.60352H75.926V15.3824ZM80.0587 15.5034C78.5694 15.5034 77.6024 14.3399 77.6024 12.7604C77.6024 11.1142 78.5888 9.94058 80.1419 9.94058C81.6118 9.94058 82.5981 11.0486 82.5981 12.6734C82.5992 14.3399 81.5804 15.5034 80.0587 15.5034ZM80.1008 10.8067C79.2821 10.8067 78.7575 11.6072 78.7575 12.7265C78.7575 13.8244 79.294 14.6249 80.0889 14.6249C80.8871 14.6249 81.4214 13.769 81.4214 12.7039C81.4225 11.6185 80.899 10.8067 80.1008 10.8067ZM87.0671 15.3824L86.9849 14.7685H86.9546C86.6085 15.2626 86.1034 15.5034 85.4632 15.5034C84.5492 15.5034 83.9003 14.834 83.9003 13.934C83.9003 12.618 84.9916 11.9373 86.8811 11.9373V11.8389C86.8811 11.1368 86.5252 10.7852 85.8222 10.7852C85.3193 10.7852 84.878 10.9175 84.4898 11.1809L84.2594 10.4019C84.7309 10.0943 85.3193 9.94058 86.0104 9.94058C87.3429 9.94058 88.0156 10.6755 88.0156 12.1465V14.1104C88.0156 14.6486 88.0383 15.0658 88.0892 15.3835L87.0671 15.3824ZM86.9114 12.7265C85.6524 12.7265 85.0208 13.0454 85.0208 13.8018C85.0208 14.3614 85.3464 14.6351 85.7984 14.6351C86.3749 14.6351 86.9114 14.1749 86.9114 13.5496V12.7265ZM93.5196 15.3824L93.4666 14.5265H93.4353C93.1097 15.1732 92.5625 15.5034 91.7978 15.5034C90.5681 15.5034 89.6574 14.3727 89.6574 12.7819C89.6574 11.1142 90.6016 9.93945 91.8908 9.93945C92.5733 9.93945 93.0567 10.1803 93.3293 10.6642H93.352V7.60352H94.4865V13.9454C94.4865 14.4609 94.4984 14.9437 94.5287 15.3824H93.5196ZM93.352 12.2448C93.352 11.4986 92.8794 10.8621 92.158 10.8621C91.3176 10.8621 90.8039 11.6411 90.8039 12.7378C90.8039 13.8131 91.3371 14.5491 92.1353 14.5491C92.848 14.5491 93.352 13.9013 93.352 13.1335V12.2448ZM101.68 15.5034C100.191 15.5034 99.2248 14.3399 99.2248 12.7604C99.2248 11.1142 100.211 9.94058 101.764 9.94058C103.234 9.94058 104.221 11.0486 104.221 12.6734C104.222 14.3399 103.204 15.5034 101.68 15.5034ZM101.722 10.8067C100.904 10.8067 100.38 11.6072 100.38 12.7265C100.38 13.8244 100.915 14.6249 101.711 14.6249C102.509 14.6249 103.044 13.769 103.044 12.7039C103.046 11.6185 102.521 10.8067 101.722 10.8067ZM110.316 15.3824H109.182V12.3206C109.182 11.3776 108.835 10.905 108.153 10.905C107.481 10.905 107.021 11.5088 107.021 12.2109V15.3824H105.886V11.5744C105.886 11.1029 105.875 10.5975 105.844 10.0491H106.841L106.894 10.8722H106.925C107.229 10.3024 107.849 9.93945 108.541 9.93945C109.612 9.93945 110.316 10.7954 110.316 12.1883V15.3824ZM117.942 10.9389H116.695V13.5281C116.695 14.1873 116.914 14.5163 117.355 14.5163C117.555 14.5163 117.723 14.4937 117.858 14.4609L117.889 15.3609C117.67 15.4491 117.375 15.4932 117.01 15.4932C116.117 15.4932 115.582 14.9776 115.582 13.6276V10.9389H114.838V10.0502H115.582V9.07337L116.695 8.72173V10.0491H117.942V10.9389ZM123.943 15.3824H122.81V12.3432C122.81 11.3889 122.465 10.9062 121.782 10.9062C121.194 10.9062 120.647 11.3234 120.647 12.168V15.3824H119.515V7.60352H120.647V10.8067H120.67C121.027 10.2255 121.544 9.93945 122.203 9.93945C123.283 9.93945 123.943 10.8168 123.943 12.2109V15.3824ZM130.09 13.0013H126.689C126.71 14.0109 127.35 14.5808 128.296 14.5808C128.799 14.5808 129.262 14.4926 129.671 14.3286L129.847 15.1518C129.364 15.3711 128.797 15.4808 128.136 15.4808C126.54 15.4808 125.596 14.427 125.596 12.7932C125.596 11.1583 126.563 9.92927 128.008 9.92927C129.311 9.92927 130.129 10.9389 130.129 12.4642C130.136 12.6442 130.123 12.8245 130.09 13.0013ZM129.051 12.1567C129.051 11.3335 128.654 10.7524 127.929 10.7524C127.278 10.7524 126.763 11.3448 126.69 12.1567H129.051Z"></path>
</svg>
