<svg xmlns="http://www.w3.org/2000/svg" fill="none" viewBox="0 0 162 48" height="48" width="162">
<path stroke="white" d="M6 0.5H156C159.084 0.5 161.5 2.91614 161.5 6V42C161.5 45.0839 159.084 47.5 156 47.5H6C2.91614 47.5 0.500002 45.0839 0.5 42V6C0.5 2.91614 2.91614 0.5 6 0.5Z"></path>
<path fill="white" d="M56.8802 12.2395C56.8802 13.1995 56.6402 14.0395 56.0402 14.6395C55.3202 15.3595 54.4802 15.7195 53.4002 15.7195C52.3202 15.7195 51.4802 15.3595 50.7602 14.6395C50.0402 13.9195 49.6802 13.0795 49.6802 11.9995C49.6802 10.9195 50.0402 10.0795 50.7602 9.35954C51.4802 8.63954 52.3202 8.27954 53.4002 8.27954C53.8802 8.27954 54.3602 8.39954 54.8402 8.63954C55.3202 8.87954 55.6802 9.11954 55.9202 9.47954L55.3202 10.0795C54.8402 9.47954 54.2402 9.23954 53.4002 9.23954C52.6802 9.23954 51.9602 9.47954 51.4802 10.0795C50.8802 10.5595 50.6402 11.2795 50.6402 12.1195C50.6402 12.9595 50.8802 13.6795 51.4802 14.1595C52.0802 14.6395 52.6802 14.9995 53.4002 14.9995C54.2402 14.9995 54.8402 14.7595 55.4402 14.1595C55.8002 13.7995 56.0402 13.3195 56.0402 12.7195H53.4002V11.7595H56.8802V12.2395ZM62.4002 9.23954H59.1602V11.5195H62.1602V12.3595H59.1602V14.6395H62.4002V15.5995H58.2002V8.39954H62.4002V9.23954ZM66.3602 15.5995H65.4002V9.23954H63.3602V8.39954H68.4002V9.23954H66.3602V15.5995ZM71.8802 15.5995V8.39954H72.8402V15.5995H71.8802ZM76.9202 15.5995H75.9602V9.23954H73.9202V8.39954H78.8402V9.23954H76.8002V15.5995H76.9202ZM88.3202 14.6395C87.6002 15.3595 86.7602 15.7195 85.6802 15.7195C84.6002 15.7195 83.7602 15.3595 83.0402 14.6395C82.3202 13.9195 81.9602 13.0795 81.9602 11.9995C81.9602 10.9195 82.3202 10.0795 83.0402 9.35954C83.7602 8.63954 84.6002 8.27954 85.6802 8.27954C86.7602 8.27954 87.6002 8.63954 88.3202 9.35954C89.0402 10.0795 89.4002 10.9195 89.4002 11.9995C89.4002 13.0795 89.0402 13.9195 88.3202 14.6395ZM83.7602 14.0395C84.2402 14.5195 84.9602 14.8795 85.6802 14.8795C86.4002 14.8795 87.1202 14.6395 87.6002 14.0395C88.0802 13.5595 88.4402 12.8395 88.4402 11.9995C88.4402 11.1595 88.2002 10.4395 87.6002 9.95954C87.1202 9.47954 86.4002 9.11954 85.6802 9.11954C84.9602 9.11954 84.2402 9.35954 83.7602 9.95954C83.2802 10.4395 82.9202 11.1595 82.9202 11.9995C82.9202 12.8395 83.1602 13.5595 83.7602 14.0395ZM90.7202 15.5995V8.39954H91.8002L95.2802 14.0395V8.39954H96.2402V15.5995H95.2802L91.5602 9.71954V15.5995H90.7202Z"></path>
<path fill="white" d="M81.7198 26.16C78.8398 26.16 76.5598 28.32 76.5598 31.32C76.5598 34.2 78.8398 36.48 81.7198 36.48C84.5998 36.48 86.8798 34.32 86.8798 31.32C86.8798 28.2 84.5998 26.16 81.7198 26.16ZM81.7198 34.32C80.1598 34.32 78.8398 33 78.8398 31.2C78.8398 29.4 80.1598 28.08 81.7198 28.08C83.2798 28.08 84.5998 29.28 84.5998 31.2C84.5998 33 83.2798 34.32 81.7198 34.32ZM70.5598 26.16C67.6798 26.16 65.3998 28.32 65.3998 31.32C65.3998 34.2 67.6798 36.48 70.5598 36.48C73.4398 36.48 75.7198 34.32 75.7198 31.32C75.7198 28.2 73.4398 26.16 70.5598 26.16ZM70.5598 34.32C68.9998 34.32 67.6798 33 67.6798 31.2C67.6798 29.4 68.9998 28.08 70.5598 28.08C72.1198 28.08 73.4398 29.28 73.4398 31.2C73.4398 33 72.1198 34.32 70.5598 34.32ZM57.2398 27.72V29.88H62.3998C62.2798 31.08 61.7998 32.04 61.1998 32.64C60.4798 33.36 59.2798 34.2 57.2398 34.2C53.9998 34.2 51.5998 31.68 51.5998 28.44C51.5998 25.2 54.1198 22.68 57.2398 22.68C58.9198 22.68 60.2398 23.4 61.1998 24.24L62.7598 22.68C61.4398 21.48 59.7598 20.52 57.3598 20.52C53.0398 20.52 49.3198 24.12 49.3198 28.44C49.3198 32.76 53.0398 36.36 57.3598 36.36C59.7598 36.36 61.4398 35.64 62.8798 34.08C64.3198 32.64 64.7998 30.6 64.7998 29.04C64.7998 28.56 64.7998 28.08 64.6798 27.72H57.2398ZM111.72 29.4C111.24 28.2 110.04 26.16 107.4 26.16C104.76 26.16 102.6 28.2 102.6 31.32C102.6 34.2 104.76 36.48 107.64 36.48C109.92 36.48 111.36 35.04 111.84 34.2L110.16 33C109.56 33.84 108.84 34.44 107.64 34.44C106.44 34.44 105.72 33.96 105.12 32.88L111.96 30L111.72 29.4ZM104.76 31.08C104.76 29.16 106.32 28.08 107.4 28.08C108.24 28.08 109.08 28.56 109.32 29.16L104.76 31.08ZM99.1198 36H101.4V21H99.1198V36ZM95.5198 27.24C94.9198 26.64 93.9598 26.04 92.7598 26.04C90.2398 26.04 87.8398 28.32 87.8398 31.2C87.8398 34.08 90.1198 36.24 92.7598 36.24C93.9598 36.24 94.9198 35.64 95.3998 35.04H95.5198V35.76C95.5198 37.68 94.4398 38.76 92.7598 38.76C91.4398 38.76 90.4798 37.8 90.2398 36.96L88.3198 37.8C88.9198 39.12 90.3598 40.8 92.8798 40.8C95.5198 40.8 97.6798 39.24 97.6798 35.52V26.4H95.5198V27.24ZM92.8798 34.32C91.3198 34.32 89.9998 33 89.9998 31.2C89.9998 29.4 91.3198 28.08 92.8798 28.08C94.4398 28.08 95.6398 29.4 95.6398 31.2C95.6398 33 94.4398 34.32 92.8798 34.32ZM122.16 21H116.76V36H119.04V30.36H122.16C124.68 30.36 127.08 28.56 127.08 25.68C127.08 22.8 124.68 21 122.16 21ZM122.28 28.2H119.04V23.04H122.28C123.96 23.04 124.92 24.48 124.92 25.56C124.8 26.88 123.84 28.2 122.28 28.2ZM136.08 26.04C134.4 26.04 132.72 26.76 132.12 28.32L134.16 29.16C134.64 28.32 135.36 28.08 136.2 28.08C137.4 28.08 138.48 28.8 138.6 30V30.12C138.24 29.88 137.28 29.52 136.32 29.52C134.16 29.52 132 30.72 132 32.88C132 34.92 133.8 36.24 135.72 36.24C137.28 36.24 138 35.52 138.6 34.8H138.72V36H140.88V30.24C140.64 27.6 138.6 26.04 136.08 26.04ZM135.84 34.32C135.12 34.32 134.04 33.96 134.04 33C134.04 31.8 135.36 31.44 136.44 31.44C137.4 31.44 137.88 31.68 138.48 31.92C138.24 33.36 137.04 34.32 135.84 34.32ZM148.44 26.4L145.92 32.88H145.8L143.16 26.4H140.76L144.72 35.52L142.44 40.56H144.72L150.84 26.4H148.44ZM128.28 36H130.56V21H128.28V36Z"></path>
<path fill="white" d="M12.48 9.00049C12.12 9.36049 12 9.96049 12 10.6805V37.2005C12 37.9205 12.24 38.5205 12.6 38.8805L12.72 39.0005L27.6 24.1205V23.8805L12.48 9.00049Z"></path>
<path fill="#D3D3D3" d="M32.401 29.16L27.481 24.24V23.88L32.401 18.96L32.521 19.08L38.401 22.44C40.081 23.4 40.081 24.96 38.401 25.92L32.401 29.16Z"></path>
<path fill="#E0E0E0" d="M32.521 29.0405L27.481 24.0005L12.481 39.0005C13.081 39.6005 13.921 39.6005 15.001 39.1205L32.521 29.0405Z"></path>
<path fill="#F0F0F0" d="M32.521 18.9602L15.001 9.00018C13.921 8.40018 13.081 8.52018 12.481 9.12018L27.481 24.0002L32.521 18.9602Z"></path>
<path fill="black" d="M32.401 28.9209L15.001 38.7609C14.041 39.3609 13.201 39.2409 12.601 38.7609L12.481 38.8809L12.601 39.0009C13.201 39.4809 14.041 39.6009 15.001 39.0009L32.401 28.9209Z" opacity="0.2"></path>
<path fill="black" d="M12.48 38.7605C12.12 38.4005 12 37.8005 12 37.0805V37.2005C12 37.9205 12.24 38.5205 12.6 38.8805V38.7605H12.48ZM38.4 25.5605L32.4 28.9205L32.52 29.0405L38.4 25.6805C39.24 25.2005 39.6 24.6005 39.6 24.0005C39.6 24.6005 39.12 25.0805 38.4 25.5605Z" opacity="0.12"></path>
<path fill="white" d="M15 9.12052L38.4 22.4405C39.12 22.9205 39.6 23.4005 39.6 24.0005C39.6 23.4005 39.24 22.8005 38.4 22.3205L15 9.00052C13.32 8.04052 12 8.76052 12 10.6805V10.8005C12 9.00052 13.32 8.16052 15 9.12052Z" opacity="0.25"></path>
</svg>
