<svg xmlns="http://www.w3.org/2000/svg" fill="none" viewBox="0 0 176 55" height="55" width="176">
<mask height="55" width="176" y="0" x="0" maskUnits="userSpaceOnUse" style="mask-type:luminance" id="mask0_27030_76765">
<path fill="white" d="M0 54.3643H175.358V-0.000205994H0V54.3643Z"></path>
</mask>
<g mask="url(#mask0_27030_76765)">
<path fill="black" d="M18.2895 0.408306C18.2915 0.399067 18.5744 0.412411 18.5744 0.412411L19.3327 18.7492L19.0775 18.7646C18.5487 16.6845 17.1233 0.558205 11.5618 0.558205C7.28744 0.558205 5.85275 20.3323 5.85275 26.9576C5.85275 35.5377 6.90827 53.5418 11.7063 53.5418C14.0192 53.5418 15.2746 49.5716 15.2746 44.3334V27.6034H12.7075V26.9463H23.068V27.6034H20.4682V53.819C20.462 53.8169 20.172 53.8272 20.17 53.8221C19.7939 52.7307 19.7395 50.4863 18.0538 50.4863C16.1846 50.4863 14.1811 54.3642 11.5833 54.3559C2.99156 54.3292 -0.000793457 38.4268 -0.000793457 26.9617C-0.000793457 17.4637 3.46091 0.000709534 11.5761 0.000709534C12.936 0.000709534 13.8932 0.352863 14.9784 1.92473C15.7736 3.07771 17.278 3.34055 17.9216 1.86416C18.1163 1.41858 18.2054 0.844654 18.2895 0.408306Z"></path>
<path fill="black" d="M134.839 1.36728H132.54V0.739964H142.327V1.36728H140.018L140.034 52.8591H142.327V53.4956H132.54V52.8591H134.839"></path>
<path fill="black" d="M106.424 52.8549H112.558C115.435 52.7409 118.958 50.05 118.958 42.5438C118.958 41.1116 118.975 39.6157 118.975 38.1167L119.522 38.1198V53.4853L100.943 53.4966L113.555 1.37133H107.673C103.953 1.37133 101.9 7.01199 101.9 12.1988C101.9 13.5294 101.86 16.1054 101.86 16.1054L101.342 16.1116V0.74094H119.39L106.424 52.8549Z"></path>
<path fill="black" d="M44.139 1.37865V26.9577C45.2048 26.9515 46.9694 27.0727 48.8028 24.7041C50.506 22.5029 51.1813 16.9536 51.1813 12.8181C51.1813 8.40534 48.977 1.36736 46.1466 1.36736L44.139 1.37865ZM36.6889 0.744156L47.6345 0.747234C52.8753 0.747234 56.2734 6.58194 56.2734 13.5871C56.2734 20.5686 53.4143 27.0747 49.0067 27.0747C48.4175 27.0747 48.4718 27.429 49.0067 27.429C51.6476 27.429 53.6305 30.4557 54.0312 31.2606C55.6463 34.5152 54.5334 49.4906 56.1494 50.97C57.5124 52.2185 58.5136 50.2667 58.6919 49.9639L58.8579 50.085C58.8323 50.2226 57.6641 54.084 54.7158 54.084C52.2665 54.084 51.0266 51.0686 50.674 49.1805C50.1012 46.1045 50.2877 36.6959 49.9751 34.8037C49.7025 33.1538 48.9626 28.2298 46.6507 27.7996C45.6198 27.6076 45.295 27.6076 44.14 27.6148C44.1339 27.6148 44.1421 52.8489 44.1421 52.8489H46.4509V53.4967H36.3753V52.8489H38.9628L38.9526 1.37865H36.6889V0.744156Z"></path>
<path fill="black" d="M73.7587 37.4336H81.1033L77.5648 16.8001L73.7587 37.4336ZM70.0921 52.8474L79.9914 -0.000671387L89.1407 52.8484L91.221 52.8546V53.4932L81.7028 53.4921V52.8443H83.7872L81.1966 38.1051H73.6142L70.9262 52.8566H73.5989V53.4891H67.8365V52.8617L70.0921 52.8474Z"></path>
<path fill="black" d="M157.896 37.4336H165.241L161.702 16.8001L157.896 37.4336ZM154.23 52.8474L164.128 -0.000671387L173.279 52.8484L175.358 52.8546V53.4932L165.84 53.4921V52.8443H167.924L165.334 38.1051H157.751L155.063 52.8576H157.736V53.4891H151.974V52.8628L154.23 52.8474Z"></path>
</g>
</svg>
