<svg xmlns="http://www.w3.org/2000/svg" fill="none" viewBox="0 0 155 39" height="39" width="155">
<path fill="#151515" d="M20.17 0.131365C18.6868 -0.062682 8.73416 -0.871212 3.4929 5.9959C0.952973 9.1905 2.76255 13.0535 8.53077 13.0678C3.12447 15.0299 -0.947085 18.6233 0.192226 22.8996C1.64134 28.6879 8.19129 28.4155 13.3949 27.9017C22.5239 26.9178 28.8205 18.3538 30.2457 17.2075C32.4396 18.3538 33.5254 20.3302 32.6778 21.5197C30.1777 21.6778 23.7537 22.2168 23.9918 25.4869C24.2965 28.8647 34.4302 28.5054 39.974 24.7969C40.8542 25.0916 42.4828 25.9001 43.2747 26.5218C44.1114 27.1578 45.0162 26.6188 45.1856 23.9345C44.2924 23.1152 42.0304 22.3066 40.8426 22.3821C41.2161 20.5099 41.8495 18.3538 36.8471 14.6202C35.9683 14.2213 36.0588 13.6823 36.6733 13.2403C37.3255 12.784 36.6017 11.7059 34.9361 11.1705C33.1635 10.6279 29.4538 10.8974 28.3348 12.2054C27.7347 12.784 27.7347 14.6705 28.6822 15.3102C27.7347 16.8266 23.2108 23.3847 16.5219 23.9345C14.0724 24.1932 11.3255 23.8375 11.484 20.3123C11.72 17.3656 16.2439 14.7604 17.9116 14.1028C18.8678 13.5925 18.6868 12.1551 17.3905 11.8604C16.1534 11.4364 13.1676 11.2567 13.0475 8.92817C12.8057 6.58523 15.7915 4.87833 20.5174 3.92607C22.0346 3.80029 22.0346 0.656011 20.17 0.131365Z"></path>
<path fill="#151515" d="M32.3291 24.2782C30.7193 24.0123 26.7382 24.0123 26.77 25.3131C26.7382 26.5277 31.0812 26.2582 32.3291 24.2782ZM58.7344 15.8257C57.3201 15.5669 52.7056 15.0279 52.1331 19.4479C51.4389 23.8319 55.0581 24.1912 56.4761 23.9325C57.9534 23.8319 60.9392 22.3047 60.9928 17.0331C60.8487 14.3092 61.9345 13.321 64.2935 13.2384C66.6394 13.1413 67.7251 13.6804 67.7678 16.1706C67.7251 18.5315 67.8156 36.7684 67.7678 37.559C66.0965 37.5769 61.5726 37.7566 59.7767 38.0764C59.944 33.7139 60.4868 24.9998 60.4716 23.5875C59.3106 25.3591 57.0486 27.8746 52.828 27.7272C48.5436 27.6949 44.653 25.7185 45.0106 20.1378C45.1959 14.5787 50.8961 10.7157 59.603 12.031C61.2107 12.2437 61.3916 16.0168 58.7344 15.8257ZM152.89 24.2782C150.875 24.1021 149.428 24.4615 147.853 24.7957C146.17 25.0005 143.637 25.27 141.772 24.7957C139.837 24.3716 139.294 22.4851 139.861 21.3459C140.38 20.1493 142.189 19.5205 143.336 19.1036C144.361 18.8018 144.361 17.3644 143.162 17.0338C142.008 16.8254 140.38 16.3762 140.383 15.3089C140.38 14.3998 141.827 13.0522 146.289 13.4116C148.07 13.5912 147.618 10.6266 145.768 10.1343C143.999 10.0876 138.027 10.6266 133.955 12.7216C131.875 13.7709 131.513 16.7355 137.082 17.7237C133.594 17.9932 131.241 20.9578 131.349 22.3809C131.358 22.6885 131.288 23.3705 131.523 24.1057C130.628 24.6936 129.527 24.8819 128.222 24.7957C126.492 24.731 123.777 22.5749 124.4 18.9311C124.886 15.6287 125.813 16.0168 126.311 15.8264C127.26 15.8372 128.256 15.2981 128.222 14.1015C128.256 12.7827 128.573 12.4686 127.527 12.5491C126.582 12.4686 120.384 13.367 115.714 12.3766C115.679 10.986 113.417 9.09941 111.024 10.3068C108.712 11.6148 109.345 14.4896 112.066 15.1364C112.272 15.2644 112.488 15.3175 112.761 15.3089C111.872 18.7687 109.96 24.4414 106.855 24.9682C105.183 25.3598 104.098 24.192 104.249 21.3459C104.46 18.6221 104.944 13.4116 104.944 13.4116C105.183 11.1657 96.9498 11.2555 97.1265 14.1015V22.8983C97.0403 23.0543 97.0852 23.318 97.1265 23.5883C95.0831 25.219 90.4853 25.587 90.8726 21.8634L91.9149 13.929C92.1545 11.6148 84.6447 10.8063 84.4449 14.1015V20.4835C84.3436 20.8774 84.332 21.3237 84.4449 21.8634C83.7624 22.9177 82.6339 23.9505 81.1443 23.9332C79.1255 24.1021 77.9493 23.8326 78.191 21.1735C78.3112 18.6221 78.8859 13.7565 78.8859 13.7565C79.1255 11.3453 71.6157 11.3453 71.416 13.4116C71.3443 15.1185 70.8919 21.407 70.7211 23.4158C70.7109 25.3598 73.7872 27.7854 78.191 27.5555C81.9593 27.4477 83.3273 26.3797 84.9661 24.2782C85.666 26.126 87.4047 27.761 91.22 27.5555C92.588 27.5224 94.7212 27.9795 97.9951 25.3131C98.9549 26.5752 100.466 27.6848 102.685 27.7279C106.812 27.9651 109.888 27.6058 112.066 23.4158C113.946 19.7152 114.535 18.216 115.02 15.8264C116.867 16.2375 118.78 16.466 120.579 16.5163C118.484 17.9932 117.579 19.251 117.799 21.8634C117.85 23.4733 118.936 27.6367 125.964 27.7279C129.839 27.7294 131.648 26.8928 132.913 26.0031C134.566 27.1702 138.04 28.0348 145.247 27.383C147.618 27.0667 151.147 27.1566 153.412 27.2105C154.947 27.3363 155.037 24.2818 152.89 24.2782ZM101.122 9.44438C103.464 9.47528 105.297 7.93944 105.291 5.99465C105.297 4.15048 103.464 2.61464 101.122 2.54492C98.9411 2.61464 97.1076 4.15048 97.1265 5.99465C97.1076 7.93872 98.9411 9.47528 101.122 9.44438Z"></path>
</svg>
