<svg xmlns="http://www.w3.org/2000/svg" fill="none" viewBox="0 0 176 32" height="32" width="176">
<path fill="#151515" d="M7.39323 12.5878V2.00717H10.1217C14.9038 2.00717 16.4587 3.78495 16.4587 6.99642C16.4587 10.4086 15.4026 12.5878 10.5031 12.5878C10.5324 12.5878 7.39323 12.5878 7.39323 12.5878ZM7.39323 13.5914H10.3564C14.4051 13.5914 15.6373 14.3656 16.0187 17.8925L16.3121 20.9606C16.6348 24.2007 17.4269 25.405 21.7103 25.405C22.4437 25.405 23.4706 25.2903 24.1454 25.1183V24.3441C21.2702 24.2581 20.5368 23.7706 20.0673 21.0753L19.7153 18.6667C19.2165 15.4552 18.3364 13.4767 13.4369 13.1039V12.9893C18.4244 12.129 20.3314 9.8638 20.3314 6.88172C20.3314 3.67025 17.779 1.00358 10.4151 1.00358H0V1.77778C3.16853 1.89248 3.96066 2.5233 3.96066 3.8423V22.2796C3.96066 23.5986 3.16853 24.2007 0 24.3154V25.147H11.2952V24.3154C7.98 24.2007 7.42257 23.6846 7.42257 22.2796L7.39323 13.5914ZM30.9225 25.4624C35.4992 25.4624 39.0785 21.9068 39.0785 16.9176C39.0785 11.957 35.7046 8.5448 30.9225 8.5448C26.287 8.5448 22.6784 12.1004 22.6784 17.0609C22.6784 22.0502 26.0523 25.4624 30.9225 25.4624ZM31.0692 24.5735C28.1647 24.5735 26.1404 22.3943 26.1404 16.9749C26.1404 11.5269 27.842 9.37635 30.7171 9.37635C33.6216 9.37635 35.6459 11.4982 35.6459 16.9749C35.6459 22.3943 33.8856 24.5735 31.0692 24.5735ZM40.7508 25.6057H41.3669L42.8925 23.7133C44.6821 24.9749 46.4717 25.4624 48.4081 25.4624C53.1902 25.4624 56.124 21.3047 56.124 16.5161C56.124 11.9283 53.5716 8.5448 49.2882 8.5448C47.0292 8.5448 45.4156 9.40502 43.9487 10.8674V0L37.9343 0.143369V0.888891C40.3401 0.974912 40.8975 1.49104 40.8975 2.66667V22.4803L40.7508 25.6057ZM48.1147 24.5735C46.3251 24.5735 44.6821 23.5699 43.9193 21.4767V11.8136C45.0048 10.724 46.2664 10.0358 47.968 10.0358C50.8431 10.0358 52.7501 12.8172 52.7501 16.6882C52.7501 21.5341 51.2832 24.5735 48.1147 24.5735ZM57.6496 25.6057H58.295L59.8206 23.7133C61.6103 24.9749 63.3999 25.4624 65.3362 25.4624C70.1184 25.4624 73.0522 21.3047 73.0522 16.5161C73.0522 11.9283 70.4997 8.5448 66.2164 8.5448C63.9573 8.5448 62.3437 9.40502 60.8768 10.8674V0L54.8625 0.143369V0.888891C57.2682 0.974912 57.8256 1.49104 57.8256 2.66667V22.4803L57.6496 25.6057ZM65.0135 24.5735C63.2239 24.5735 61.5809 23.5699 60.8181 21.4767V11.8136C61.9036 10.724 63.1652 10.0358 64.8668 10.0358C67.742 10.0358 69.6489 12.8172 69.6489 16.6882C69.6489 21.5341 68.182 24.5735 65.0135 24.5735ZM84.8755 12.5878V2.00717H87.6039C92.3861 2.00717 93.941 3.78495 93.941 6.99642C93.941 10.4086 92.8848 12.5878 87.9853 12.5878H84.8755ZM84.8755 13.5914H87.8386C91.8873 13.5914 93.1195 14.3656 93.5009 17.8925L93.7943 20.9606C94.117 24.2007 94.9091 25.405 99.1925 25.405C99.926 25.405 100.953 25.2903 101.628 25.1183V24.3441C98.7525 24.2581 98.019 23.7706 97.5496 21.0753L97.1975 18.6667C96.6988 15.4552 95.8186 13.4767 90.9192 13.1039V12.9893C95.9066 12.129 97.8136 9.8638 97.8136 6.88172C97.8136 3.67025 95.2612 1.00358 87.8973 1.00358H77.4822V1.77778C80.6508 1.89248 81.4429 2.5233 81.4429 3.8423V22.2796C81.4429 23.5986 80.6508 24.2007 77.4822 24.3154V25.147H88.7775V24.3154C85.4622 24.2007 84.9048 23.6846 84.9048 22.2796V13.5914H84.8755ZM108.199 25.4624C111.867 25.4624 113.774 23.4265 115.123 21.2186L114.566 20.7599C113.07 22.5663 111.573 23.828 109.402 23.828C105.647 23.828 103.681 20.7599 103.681 16.8029V16.172H114.947C115.241 12.2437 112.981 8.5448 108.199 8.5448C103.711 8.5448 100.337 12.2724 100.337 17.1756C100.337 21.8495 103.3 25.4624 108.199 25.4624ZM107.965 9.40502C110.781 9.40502 111.925 11.8136 111.603 15.2545L103.74 15.3692C104.033 11.2115 105.647 9.40502 107.965 9.40502ZM115.035 32H124.218V31.2545C121.519 31.2258 120.756 30.9677 120.756 29.9068V24.2294C122.106 24.9462 123.426 25.405 125.274 25.405C129.968 25.405 132.814 21.534 132.814 16.6021C132.814 11.8996 130.438 8.51613 126.213 8.51613C123.954 8.51613 122.252 9.57706 120.668 11.0681V8.71685L115.006 8.86022V9.60573C117.118 9.63441 117.676 10.3226 117.676 11.3835V29.8781C117.676 30.9391 117.118 31.1971 115.006 31.2258L115.035 32ZM124.834 24.5161C122.78 24.5161 121.46 23.6272 120.756 21.448V12.0717C121.812 10.9247 123.103 10.0358 124.863 10.0358C127.739 10.0358 129.411 12.8746 129.411 16.8029C129.411 21.7921 127.592 24.5161 124.834 24.5161ZM142.408 25.4624C146.985 25.4624 150.564 21.9068 150.564 16.9176C150.564 11.957 147.19 8.5448 142.408 8.5448C137.772 8.5448 134.164 12.1004 134.164 17.0609C134.164 22.0502 137.538 25.4624 142.408 25.4624ZM142.554 24.5735C139.65 24.5735 137.626 22.3943 137.626 16.9749C137.626 11.5269 139.327 9.37635 142.202 9.37635C145.107 9.37635 147.131 11.4982 147.131 16.9749C147.131 22.3943 145.371 24.5735 142.554 24.5735ZM150.622 25.1756H159.395V24.4014C157.018 24.3728 156.343 24.1147 156.343 23.0824V13.0179C157.282 11.5269 158.397 10.466 160.011 10.3513C159.923 10.6093 159.864 10.8961 159.864 11.1255C159.864 12.3298 160.773 13.0179 161.859 13.0179C162.974 13.0179 163.766 12.1577 163.766 11.0108C163.766 9.80645 162.974 8.63083 161.096 8.63083C159.219 8.63083 157.546 10.0072 156.255 11.9857V8.77419L150.593 8.91756V9.66309C152.705 9.69176 153.263 10.3799 153.263 11.4409V23.0824C153.263 24.1147 152.705 24.3728 150.593 24.4014V25.1756H150.622ZM171.071 25.5197C173.242 25.5197 174.709 24.4301 176 22.1362L175.384 21.7061C174.445 23.1398 173.448 23.8853 172.421 23.8853C170.924 23.8853 170.25 23.0251 170.25 20.9606V10.1505H175.501V8.86022H170.25V2.95341L167.228 4.24373V8.77419L163.913 9.51972V10.2079H167.199V20.9893C167.169 24 168.46 25.5197 171.071 25.5197Z"></path>
</svg>
